<?xml version="1.0" standalone="no"?><!DOCTYPE svg PUBLIC "-//W3C//DTD SVG 1.1//EN" "http://www.w3.org/Graphics/SVG/1.1/DTD/svg11.dtd"><svg t="1655100474627" class="icon" viewBox="0 0 1024 1024" version="1.1" xmlns="http://www.w3.org/2000/svg" p-id="3194" xmlns:xlink="http://www.w3.org/1999/xlink" width="200" height="200"><defs><style type="text/css">@font-face { font-family: feedback-iconfont; src: url("//at.alicdn.com/t/font_1031158_u69w8yhxdu.woff2?t=1630033759944") format("woff2"), url("//at.alicdn.com/t/font_1031158_u69w8yhxdu.woff?t=1630033759944") format("woff"), url("//at.alicdn.com/t/font_1031158_u69w8yhxdu.ttf?t=1630033759944") format("truetype"); }
</style></defs><path d="M356.255 436.753c0-20.451-7.757-37.147-23.261-50.081-15.509-12.934-35.369-19.401-59.577-19.401-25.615 0-45.222 7.855-58.827 23.561-13.609 15.71-21.113 39.168-22.51 70.382h-52.524c0-45.218 11.855-80.184 35.566-104.898 23.711-24.71 57.275-37.067 100.696-37.067 41.016 0 74.083 10.256 99.196 30.764 25.109 20.512 37.667 47.572 37.667 81.187 0 33.418-12.606 60.431-37.817 81.037-4.802 4.005-10.008 7.607-15.607 10.805 10.402 4.606 19.608 10.107 27.613 16.508 27.012 21.212 40.519 49.823 40.519 85.839 0 40.421-14.008 73.488-42.019 99.196-28.016 25.714-64.032 38.568-108.05 38.568-48.425 0-84.939-11.657-109.55-34.966-24.611-23.307-38.019-58.977-40.218-106.999h56.426c3.207 33.615 12.123 57.679 26.754 72.183 14.632 14.511 37.377 21.76 68.244 21.76 26.652 0 48.496-7.654 65.534-22.961 17.033-15.307 25.554-34.966 25.554-58.977 0-25.212-8.207-45.217-24.611-60.028-14.008-12.802-32.016-20.005-54.025-21.61-10.205-0.595-19.861-0.895-28.963-0.895-9.107 0-15.157 0.399-18.158 1.196v-47.121c4.399 0.994 11.204 1.491 20.409 1.491 9.201 0 18.308-0.595 27.313-1.791 17.408-2.204 31.514-7.921 42.319-17.145 14.6-12.03 21.907-28.875 21.907-50.537zM528.402 319.996h181.544c56.104 0 100.738 19.988 133.904 59.964 33.161 39.976 49.745 93.731 49.745 161.256 0 67.328-16.982 120.934-50.947 160.805-33.964 39.878-79.802 59.814-137.511 59.814H528.402V319.996z m59.813 390.742h109.408c42.878 0 75.993-14.728 99.339-44.184 23.341-29.456 35.016-71.235 35.016-125.338 0-54.3-11.224-96.229-33.664-125.788-22.444-29.555-54.304-44.334-95.581-44.334H588.215v339.644z" p-id="3195"></path></svg>