<?xml version="1.0" standalone="no"?><!DOCTYPE svg PUBLIC "-//W3C//DTD SVG 1.1//EN" "http://www.w3.org/Graphics/SVG/1.1/DTD/svg11.dtd"><svg t="1655195581747" class="icon" viewBox="0 0 1024 1024" version="1.1" xmlns="http://www.w3.org/2000/svg" p-id="17269" xmlns:xlink="http://www.w3.org/1999/xlink" width="32" height="32"><defs><style type="text/css">@font-face { font-family: feedback-iconfont; src: url("//at.alicdn.com/t/font_1031158_u69w8yhxdu.woff2?t=1630033759944") format("woff2"), url("//at.alicdn.com/t/font_1031158_u69w8yhxdu.woff?t=1630033759944") format("woff"), url("//at.alicdn.com/t/font_1031158_u69w8yhxdu.ttf?t=1630033759944") format("truetype"); }
</style></defs><path d="M765.44 555.52h-307.2c-7.68 0-12.8-5.12-12.8-12.8s5.12-12.8 12.8-12.8h307.2c7.68 0 12.8 5.12 12.8 12.8s-5.12 12.8-12.8 12.8z" fill="#000000" p-id="17270"></path><path d="M640 696.32c-7.68 0-12.8-2.56-17.92-7.68-10.24-10.24-10.24-25.6 0-35.84l107.52-107.52-110.08-110.08c-10.24-10.24-10.24-25.6 0-35.84s25.6-10.24 35.84 0l125.44 125.44c10.24 10.24 10.24 25.6 0 35.84l-125.44 125.44c-2.56 7.68-10.24 10.24-15.36 10.24z" fill="#000000" p-id="17271"></path><path d="M693.76 875.52h-435.2c-15.36 0-25.6-10.24-25.6-25.6v-614.4c0-15.36 10.24-25.6 25.6-25.6h435.2c15.36 0 25.6 10.24 25.6 25.6v76.8c0 15.36-10.24 25.6-25.6 25.6s-25.6-10.24-25.6-25.6v-51.2h-384v563.2h384v-51.2c0-15.36 10.24-25.6 25.6-25.6s25.6 10.24 25.6 25.6v76.8c0 15.36-10.24 25.6-25.6 25.6z" fill="#000000" p-id="17272"></path></svg>